# xmcd
#
# Track frame offsets:
#	150
#	10162
#	19248
#	30266
#	40940
#	51238
#	60950
#	72189
#	83205
#	94124
#
# Disc length: 1422 seconds
#
# Revision: 0
# Processed by: cddbd v1.5.2PL0 Copyright (c) Steve Scherf et al.
# Submitted via: dBpowerAMP V4.0
#
DISCID=71058c0a
DTITLE=Buck Owens - American Music Legends
DYEAR=2007
DGENRE=Country
TTITLE0=I've Got A Tiger By The Tail
TTITLE1=Love's Gonna Live Here
TTITLE2=Together Again
TTITLE3=Act Naturally
TTITLE4=Rollin' In My Sweet Baby's Arms
TTITLE5=I Don't Care (Just As Long As You Love Me)
TTITLE6=Crying Time
TTITLE7=Lookin' Back To See (With Susan Raye)
TTITLE8=My Heart Skips A Beat
TTITLE9=Phfft You Were Gone (Where, Oh, Where Are You Tonight?) (With Buddy Alan)
EXTD=
EXTT0=
EXTT1=
EXTT2=
EXTT3=
EXTT4=
EXTT5=
EXTT6=
EXTT7=
EXTT8=
EXTT9=
PLAYORDER=
